<svg xmlns="http://www.w3.org/2000/svg" fill="none" viewBox="0 0 668 900">
  <path fill="#fff" fill-opacity=".1" d="M18.465 190.806c-.15-1.208-.272-1.329-1.51-1.51 1.208-.151 1.329-.272 1.51-1.51.151 1.208.272 1.328 1.511 1.51-1.209.151-1.33.302-1.51 1.51ZM31.782 24.33c-.151-1.208-.272-1.329-1.511-1.51 1.209-.151 1.33-.272 1.51-1.51.152 1.208.273 1.329 1.512 1.51-1.21.15-1.33.302-1.511 1.51ZM117.229 129.383c-.151-1.209-.272-1.329-1.511-1.511 1.209-.151 1.33-.272 1.511-1.51.151 1.208.272 1.329 1.511 1.51-1.209.151-1.329.302-1.511 1.511ZM208.951 38.703a1.118 1.118 0 1 1-2.237-.002 1.118 1.118 0 0 1 2.237.002ZM54.895 89.22a1.118 1.118 0 1 1-2.236-.001 1.118 1.118 0 0 1 2.236 0ZM60.25 192.583a1.117 1.117 0 1 1-2.235 0 1.117 1.117 0 0 1 2.235 0ZM75.724 132.287a1.118 1.118 0 1 1-2.237 0 1.118 1.118 0 0 1 2.237 0Z"/>
  <path fill="#fff" fill-opacity=".15" d="M276.332 22.123a1.996 1.996 0 0 1-2.821 0 1.993 1.993 0 0 1 0-2.819 1.995 1.995 0 0 1 2.821 0c.779.779.779 2.04 0 2.82ZM157.904 89.38a1.118 1.118 0 1 1-2.236-.001 1.118 1.118 0 0 1 2.236 0Z"/>
  <path fill="#fff" fill-opacity=".1" d="M95.405 15.083c-.151-1.209-.272-1.33-1.511-1.51 1.209-.152 1.33-.273 1.511-1.51.151 1.207.272 1.328 1.511 1.51-1.209.15-1.33.301-1.511 1.51ZM124.196 93.13c-.152-1.207-.272-1.328-1.511-1.51 1.208-.15 1.329-.271 1.511-1.51.151 1.209.272 1.33 1.511 1.51-1.209.151-1.33.303-1.511 1.51ZM445.223 395.39c.151 1.208.272 1.329 1.511 1.51-1.209.151-1.329.272-1.511 1.51-.151-1.208-.272-1.328-1.511-1.51 1.209-.151 1.33-.302 1.511-1.51ZM528.821 151.605c.151 1.208.272 1.328 1.511 1.51-1.209.151-1.329.272-1.511 1.51-.151-1.208-.272-1.329-1.511-1.51 1.209-.151 1.33-.302 1.511-1.51ZM515.505 318.08c.151 1.209.272 1.329 1.511 1.511-1.209.151-1.33.271-1.511 1.51-.151-1.208-.272-1.329-1.511-1.51 1.209-.151 1.329-.302 1.511-1.511ZM430.057 213.028c.151 1.208.272 1.329 1.511 1.51-1.209.151-1.33.272-1.511 1.51-.151-1.208-.272-1.329-1.511-1.51 1.209-.151 1.33-.302 1.511-1.51ZM554.05 397.293a1.119 1.119 0 1 1 2.237.001 1.119 1.119 0 0 1-2.237-.001ZM338.336 303.708a1.117 1.117 0 1 1 2.235-.001 1.117 1.117 0 0 1-2.235.001ZM492.391 253.191a1.119 1.119 0 1 1 2.237.001 1.119 1.119 0 0 1-2.237-.001ZM487.037 149.828a1.118 1.118 0 1 1 2.236 0 1.118 1.118 0 0 1-2.236 0ZM471.563 210.123a1.117 1.117 0 1 1 2.234 0 1.117 1.117 0 0 1-2.234 0Z"/>
  <path fill="#fff" fill-opacity=".15" d="M264.899 385.346a1.994 1.994 0 1 1 1.615 3.647 1.994 1.994 0 0 1-1.615-3.647ZM419.071 368.674a1.994 1.994 0 1 1 3.987.001 1.994 1.994 0 0 1-3.987-.001ZM270.955 320.287a1.995 1.995 0 0 1 2.82 0 1.994 1.994 0 1 1-2.82 0ZM296.167 369.55a1.117 1.117 0 1 1 2.234 0 1.117 1.117 0 0 1-2.234 0ZM389.382 253.031a1.119 1.119 0 0 1 2.237 0 1.118 1.118 0 0 1-2.237 0Z"/>
  <path fill="#fff" fill-opacity=".1" d="M451.881 327.328c.151 1.208.272 1.329 1.511 1.51-1.208.151-1.329.272-1.511 1.51-.151-1.208-.272-1.329-1.511-1.51 1.209-.151 1.33-.302 1.511-1.51ZM346.521 375.417c.151 1.208.272 1.329 1.511 1.51-1.209.151-1.33.272-1.511 1.51-.151-1.208-.272-1.329-1.511-1.51 1.209-.151 1.33-.302 1.511-1.51ZM423.091 249.28c.151 1.208.272 1.329 1.511 1.51-1.209.151-1.33.272-1.511 1.51-.151-1.208-.272-1.329-1.511-1.51 1.209-.151 1.33-.302 1.511-1.51ZM490.783 364.319c.151 1.209.272 1.329 1.511 1.511-1.209.151-1.33.272-1.511 1.51-.151-1.208-.272-1.329-1.511-1.51 1.209-.151 1.33-.302 1.511-1.511ZM582.659 598.202c.15-1.208.271-1.329 1.51-1.51-1.208-.151-1.329-.272-1.51-1.511-.152 1.209-.273 1.329-1.511 1.511 1.208.151 1.329.302 1.511 1.51ZM666.302 740.362c.151-1.208.272-1.329 1.511-1.51-1.209-.152-1.329-.272-1.511-1.511-.151 1.209-.272 1.329-1.511 1.511 1.209.151 1.33.302 1.511 1.51ZM570.063 732.025c.151-1.209.272-1.329 1.511-1.511-1.209-.151-1.33-.271-1.511-1.51-.151 1.208-.272 1.329-1.511 1.51 1.208.151 1.329.302 1.511 1.511ZM405.231 640.139c.151-1.208.272-1.329 1.511-1.51-1.209-.151-1.33-.272-1.511-1.51-.151 1.208-.272 1.329-1.511 1.51 1.209.151 1.33.302 1.511 1.51ZM493.944 544.196c.151-1.208.272-1.329 1.511-1.51-1.209-.152-1.33-.272-1.511-1.511-.151 1.208-.272 1.329-1.511 1.511 1.208.15 1.329.302 1.511 1.51ZM513.152 590.203a1.118 1.118 0 1 0 2.235-.001 1.118 1.118 0 0 0-2.235.001ZM347.061 698.068a1.117 1.117 0 1 0 2.234 0 1.117 1.117 0 0 0-2.234 0ZM603.773 622.607a1.119 1.119 0 0 0 2.237 0 1.118 1.118 0 0 0-2.237 0ZM392.594 540.118a1.118 1.118 0 1 0 2.236-.002 1.118 1.118 0 0 0-2.236.002ZM630.406 665.886a1.118 1.118 0 1 0 2.236-.002 1.118 1.118 0 0 0-2.236.002ZM595.618 755.133a1.117 1.117 0 1 0 2.235.001 1.117 1.117 0 0 0-2.235-.001ZM575.599 646.651a1.118 1.118 0 1 0 2.236 0 1.118 1.118 0 0 0-2.236 0Z"/>
  <path fill="#fff" fill-opacity=".15" d="M591.275 690.136a1.994 1.994 0 1 0 1.615-3.647 1.994 1.994 0 0 0-1.615 3.647ZM444.571 684.59a1.994 1.994 0 1 0 3.989 0 1.994 1.994 0 0 0-3.989 0ZM510.71 651.624a1.997 1.997 0 0 0 2.821 0 1.995 1.995 0 1 0-2.821 0ZM582.627 548.997a1.118 1.118 0 1 0 2.235-.001 1.118 1.118 0 0 0-2.235.001ZM460.251 580.068a1.119 1.119 0 1 0 2.237-.001 1.119 1.119 0 0 0-2.237.001Z"/>
  <path fill="#fff" fill-opacity=".1" d="M448.673 754.061c.152-1.209.272-1.329 1.511-1.511-1.208-.151-1.329-.272-1.511-1.51-.151 1.208-.271 1.329-1.51 1.51 1.208.151 1.329.302 1.51 1.511ZM361.149 611.148c.151-1.208.271-1.329 1.51-1.51-1.208-.151-1.329-.272-1.51-1.51-.152 1.208-.272 1.328-1.511 1.51 1.208.151 1.329.302 1.511 1.51ZM305.51 663.768c.151-1.208.272-1.329 1.511-1.51-1.209-.151-1.329-.272-1.511-1.511-.151 1.209-.272 1.329-1.511 1.511 1.209.151 1.33.302 1.511 1.51ZM391.3 775.957c.152 1.208.272 1.329 1.511 1.51-1.208.151-1.329.272-1.511 1.51-.151-1.208-.272-1.329-1.511-1.51 1.209-.151 1.33-.302 1.511-1.51ZM295.061 784.294c.151 1.208.272 1.329 1.511 1.51-1.209.152-1.33.272-1.511 1.511-.151-1.209-.272-1.329-1.511-1.511 1.209-.15 1.329-.302 1.511-1.51ZM95.764 718c.151 1.208.272 1.329 1.511 1.51-1.209.151-1.33.272-1.51 1.51-.152-1.208-.273-1.329-1.512-1.51 1.209-.151 1.33-.302 1.511-1.51ZM72.059 818.251a1.117 1.117 0 1 1 2.235 0 1.117 1.117 0 0 1-2.235 0ZM328.772 893.712a1.118 1.118 0 1 1 2.236 0 1.118 1.118 0 0 1-2.236 0ZM355.405 850.433a1.118 1.118 0 1 1 2.236 0 1.118 1.118 0 0 1-2.236 0ZM320.616 761.185a1.117 1.117 0 1 1 2.234 0 1.117 1.117 0 0 1-2.234 0ZM300.597 869.668a1.118 1.118 0 1 1 2.236 0 1.118 1.118 0 0 1-2.236 0Z"/>
  <path fill="#fff" fill-opacity=".15" d="M316.273 826.183a1.994 1.994 0 1 1 1.615 3.647 1.994 1.994 0 0 1-1.615-3.647ZM169.569 831.728a1.993 1.993 0 1 1 3.987 0 1.993 1.993 0 0 1-3.987 0ZM235.709 864.695a1.995 1.995 0 0 1 2.82 0 1.994 1.994 0 1 1-2.82 0Z"/>
  <path fill="#fff" fill-opacity=".1" d="M173.672 762.258c.151 1.208.272 1.329 1.511 1.511-1.209.151-1.33.271-1.511 1.51-.151-1.208-.272-1.329-1.511-1.51 1.208-.151 1.329-.303 1.511-1.511ZM32.51 752.031c.152 1.208.273 1.329 1.512 1.51-1.209.151-1.33.272-1.511 1.51-.151-1.208-.272-1.328-1.511-1.51 1.209-.151 1.33-.302 1.51-1.51Z"/>
</svg>
